<svg width="1600" height="900" viewBox="0 0 1600 900" fill="none" xmlns="http://www.w3.org/2000/svg">
  <defs>
    <linearGradient id="bg" x1="120" y1="70" x2="1480" y2="830" gradientUnits="userSpaceOnUse">
      <stop stop-color="#050b14" />
      <stop offset="0.55" stop-color="#0b1220" />
      <stop offset="1" stop-color="#172033" />
    </linearGradient>
    <linearGradient id="cyan" x1="0" y1="0" x2="1" y2="1">
      <stop stop-color="#a5f3fc" />
      <stop offset="1" stop-color="#22d3ee" />
    </linearGradient>
    <linearGradient id="green" x1="0" y1="0" x2="1" y2="1">
      <stop stop-color="#bbf7d0" />
      <stop offset="1" stop-color="#34d399" />
    </linearGradient>
    <filter id="shadow" x="-20%" y="-20%" width="140%" height="140%">
      <feDropShadow dx="0" dy="26" stdDeviation="32" flood-color="#020617" flood-opacity="0.45" />
    </filter>
  </defs>
  <rect width="1600" height="900" rx="48" fill="url(#bg)" />
  <circle cx="246" cy="160" r="180" fill="#22d3ee" fill-opacity="0.09" />
  <circle cx="1320" cy="190" r="220" fill="#34d399" fill-opacity="0.08" />
  <circle cx="1240" cy="740" r="180" fill="#a78bfa" fill-opacity="0.08" />

  <rect x="120" y="105" width="1360" height="690" rx="34" fill="#07111f" fill-opacity="0.86" stroke="#1e3348" stroke-width="2" filter="url(#shadow)" />
  <text x="170" y="174" fill="#cffafe" font-family="Inter, Arial, sans-serif" font-size="24" font-weight="700">MarketHub</text>
  <text x="170" y="212" fill="#94a3b8" font-family="Inter, Arial, sans-serif" font-size="18">Backend Architecture Preview - .NET 8 marketplace API</text>
  <rect x="1178" y="145" width="238" height="42" rx="14" fill="#0f172a" stroke="#2c4259" />
  <text x="1210" y="172" fill="#e2e8f0" font-family="Inter, Arial, sans-serif" font-size="16" font-weight="600">Swagger/OpenAPI</text>

  <rect x="170" y="270" width="285" height="300" rx="24" fill="#0b1727" stroke="#22384e" stroke-width="2" />
  <text x="210" y="326" fill="#e2e8f0" font-family="Inter, Arial, sans-serif" font-size="22" font-weight="700">Client roles</text>
  <text x="210" y="372" fill="#94a3b8" font-family="Inter, Arial, sans-serif" font-size="18">Admin</text>
  <text x="210" y="420" fill="#94a3b8" font-family="Inter, Arial, sans-serif" font-size="18">Vendor</text>
  <text x="210" y="468" fill="#94a3b8" font-family="Inter, Arial, sans-serif" font-size="18">Customer</text>
  <rect x="210" y="508" width="175" height="34" rx="17" fill="#22d3ee" fill-opacity="0.12" stroke="#22d3ee" stroke-opacity="0.55" />
  <text x="235" y="531" fill="#cffafe" font-family="Inter, Arial, sans-serif" font-size="15" font-weight="700">JWT secured</text>

  <rect x="560" y="248" width="480" height="344" rx="28" fill="#0f172a" stroke="#2c4259" stroke-width="2" />
  <text x="610" y="310" fill="#f8fafc" font-family="Inter, Arial, sans-serif" font-size="26" font-weight="800">ASP.NET Core API</text>
  <text x="610" y="348" fill="#94a3b8" font-family="Inter, Arial, sans-serif" font-size="18">Layered marketplace backend</text>
  <rect x="610" y="392" width="170" height="54" rx="16" fill="#111c2d" stroke="#34465b" />
  <text x="642" y="426" fill="#e2e8f0" font-family="Inter, Arial, sans-serif" font-size="16" font-weight="700">Products</text>
  <rect x="805" y="392" width="170" height="54" rx="16" fill="#111c2d" stroke="#34465b" />
  <text x="847" y="426" fill="#e2e8f0" font-family="Inter, Arial, sans-serif" font-size="16" font-weight="700">Orders</text>
  <rect x="610" y="466" width="170" height="54" rx="16" fill="#111c2d" stroke="#34465b" />
  <text x="657" y="500" fill="#e2e8f0" font-family="Inter, Arial, sans-serif" font-size="16" font-weight="700">Cart</text>
  <rect x="805" y="466" width="170" height="54" rx="16" fill="#111c2d" stroke="#34465b" />
  <text x="846" y="500" fill="#e2e8f0" font-family="Inter, Arial, sans-serif" font-size="16" font-weight="700">Reviews</text>

  <rect x="1150" y="270" width="266" height="300" rx="24" fill="#0b1727" stroke="#22384e" stroke-width="2" />
  <text x="1190" y="326" fill="#e2e8f0" font-family="Inter, Arial, sans-serif" font-size="22" font-weight="700">Persistence</text>
  <rect x="1190" y="368" width="176" height="42" rx="14" fill="#34d399" fill-opacity="0.12" stroke="#34d399" stroke-opacity="0.55" />
  <text x="1215" y="395" fill="#bbf7d0" font-family="Inter, Arial, sans-serif" font-size="16" font-weight="700">PostgreSQL</text>
  <rect x="1190" y="432" width="176" height="42" rx="14" fill="#22d3ee" fill-opacity="0.12" stroke="#22d3ee" stroke-opacity="0.55" />
  <text x="1247" y="459" fill="#cffafe" font-family="Inter, Arial, sans-serif" font-size="16" font-weight="700">EF Core</text>
  <rect x="1190" y="496" width="176" height="42" rx="14" fill="#a78bfa" fill-opacity="0.12" stroke="#a78bfa" stroke-opacity="0.5" />
  <text x="1235" y="523" fill="#ddd6fe" font-family="Inter, Arial, sans-serif" font-size="16" font-weight="700">Docker</text>

  <path d="M455 420H560" stroke="url(#cyan)" stroke-width="5" stroke-linecap="round" />
  <path d="M1040 420H1150" stroke="url(#green)" stroke-width="5" stroke-linecap="round" />
  <path d="M800 592V672" stroke="#67e8f9" stroke-width="5" stroke-linecap="round" />
  <rect x="530" y="672" width="540" height="70" rx="22" fill="#0b1727" stroke="#22384e" stroke-width="2" />
  <text x="585" y="715" fill="#e2e8f0" font-family="Inter, Arial, sans-serif" font-size="20" font-weight="700">Unit tests + GitHub Actions CI workflow</text>
</svg>
