<svg width="1600" height="900" viewBox="0 0 1600 900" fill="none" xmlns="http://www.w3.org/2000/svg">
  <defs>
    <linearGradient id="bg" x1="140" y1="80" x2="1450" y2="840" gradientUnits="userSpaceOnUse">
      <stop stop-color="#04111d" />
      <stop offset="0.52" stop-color="#062437" />
      <stop offset="1" stop-color="#0d3d55" />
    </linearGradient>
    <linearGradient id="line" x1="450" y1="580" x2="1150" y2="340" gradientUnits="userSpaceOnUse">
      <stop stop-color="#67e8f9" />
      <stop offset="0.5" stop-color="#22d3ee" />
      <stop offset="1" stop-color="#a78bfa" />
    </linearGradient>
    <filter id="shadow" x="-20%" y="-20%" width="140%" height="140%">
      <feDropShadow dx="0" dy="26" stdDeviation="32" flood-color="#020617" flood-opacity="0.38" />
    </filter>
  </defs>
  <rect width="1600" height="900" rx="48" fill="url(#bg)" />
  <circle cx="310" cy="190" r="168" fill="#22d3ee" fill-opacity="0.12" />
  <circle cx="1305" cy="220" r="220" fill="#a78bfa" fill-opacity="0.12" />
  <circle cx="1260" cy="700" r="180" fill="#67e8f9" fill-opacity="0.09" />
  <rect x="150" y="120" width="1300" height="660" rx="36" fill="#06121f" fill-opacity="0.82" stroke="#143046" stroke-width="2" filter="url(#shadow)" />
  <text x="210" y="190" fill="#cffafe" font-family="Inter, Arial, sans-serif" font-size="24" font-weight="800">SmartSim Analytics</text>
  <text x="210" y="228" fill="#94a3b8" font-family="Inter, Arial, sans-serif" font-size="18">Simulation Analytics Preview - CSV/JSON to Python pipeline</text>

  <rect x="210" y="300" width="300" height="190" rx="24" fill="#0b1727" stroke="#17354e" stroke-width="2" />
  <text x="250" y="358" fill="#e2e8f0" font-family="Inter, Arial, sans-serif" font-size="22" font-weight="700">Input exports</text>
  <text x="250" y="398" fill="#94a3b8" font-family="Inter, Arial, sans-serif" font-size="18">CSV / JSON simulation data</text>
  <rect x="250" y="430" width="150" height="28" rx="14" fill="#22d3ee" fill-opacity="0.14" stroke="#22d3ee" stroke-opacity="0.55" />
  <text x="282" y="450" fill="#cffafe" font-family="Inter, Arial, sans-serif" font-size="14" font-weight="700">Validated</text>

  <rect x="650" y="258" width="300" height="274" rx="28" fill="#0f172a" stroke="#1f3b52" stroke-width="2" />
  <text x="700" y="320" fill="#f8fafc" font-family="Inter, Arial, sans-serif" font-size="24" font-weight="800">Python analyzer</text>
  <text x="700" y="360" fill="#94a3b8" font-family="Inter, Arial, sans-serif" font-size="18">Deterministic KPI engine</text>
  <rect x="700" y="402" width="198" height="36" rx="14" fill="#111c2d" stroke="#2d4054" />
  <text x="728" y="426" fill="#e2e8f0" font-family="Inter, Arial, sans-serif" font-size="15" font-weight="700">Anomaly checks</text>
  <rect x="700" y="454" width="198" height="36" rx="14" fill="#111c2d" stroke="#2d4054" />
  <text x="726" y="478" fill="#e2e8f0" font-family="Inter, Arial, sans-serif" font-size="15" font-weight="700">Trend stability</text>

  <rect x="1090" y="300" width="300" height="190" rx="24" fill="#0b1727" stroke="#17354e" stroke-width="2" />
  <text x="1130" y="358" fill="#e2e8f0" font-family="Inter, Arial, sans-serif" font-size="22" font-weight="700">Dashboard output</text>
  <text x="1130" y="398" fill="#94a3b8" font-family="Inter, Arial, sans-serif" font-size="18">Charts, reports, saved projects</text>
  <rect x="1130" y="430" width="144" height="28" rx="14" fill="#a78bfa" fill-opacity="0.14" stroke="#a78bfa" stroke-opacity="0.55" />
  <text x="1160" y="450" fill="#ddd6fe" font-family="Inter, Arial, sans-serif" font-size="14" font-weight="700">PDF ready</text>

  <path d="M510 395H650" stroke="#67e8f9" stroke-width="6" stroke-linecap="round" />
  <path d="M950 395H1090" stroke="#a78bfa" stroke-width="6" stroke-linecap="round" />
  <path d="M300 665L405 610L508 637L620 552L728 590L850 470L970 515L1105 410L1260 455" stroke="url(#line)" stroke-width="12" stroke-linecap="round" stroke-linejoin="round" />
  <path d="M300 665L405 610L508 637L620 552L728 590L850 470L970 515L1105 410L1260 455" stroke="#e0f2fe" stroke-opacity="0.14" stroke-width="24" stroke-linecap="round" stroke-linejoin="round" />
  <text x="300" y="724" fill="#cbd5e1" font-family="Inter, Arial, sans-serif" font-size="24" font-weight="700">KPIs, anomalies, trend, stability, PDF reporting</text>
  <text x="300" y="754" fill="#94a3b8" font-family="Inter, Arial, sans-serif" font-size="18">React + Node/Express + MongoDB + Python</text>
</svg>
